<svg xmlns="http://www.w3.org/2000/svg" viewBox="0 0 640 360" width="640" height="360" role="img">
<defs><radialGradient id="bcGlow" cx="50%" cy="62%" r="62%">
      <stop offset="0" stop-color="#FF2D6F" stop-opacity=".85"/>
      <stop offset="0.45" stop-color="#8A1039" stop-opacity=".45"/>
      <stop offset="1" stop-color="#12060C" stop-opacity="0"/></radialGradient>
     <linearGradient id="bcSky" x1="0" y1="0" x2="0" y2="1">
      <stop offset="0" stop-color="#150710"/><stop offset="1" stop-color="#2A0C1B"/></linearGradient>
     <linearGradient id="bcBone" x1="0" y1="0" x2="0" y2="1">
      <stop offset="0" stop-color="#FBF3E2"/><stop offset="0.62" stop-color="#DCCDB2"/>
      <stop offset="1" stop-color="#A48F73"/></linearGradient>
     <linearGradient id="bcGold" x1="0" y1="0" x2="0" y2="1">
      <stop offset="0" stop-color="#FFD873"/><stop offset="0.55" stop-color="#E0A32B"/>
      <stop offset="1" stop-color="#8A5A0E"/></linearGradient></defs>
<rect width="640" height="360" fill="url(#bcSky)"/>
<rect width="640" height="360" fill="url(#bcGlow)"/>
<path d="M195 300 L195 187.5
      Q320 37.5 445 187.5 L445 300"
      fill="none" stroke="#2A1220" stroke-width="9.0" opacity="0.90"/><path d="M211.25 300 L211.25 202.125
      Q320 71.625 428.75 202.125 L428.75 300"
      fill="none" stroke="#2A1220" stroke-width="7.8" opacity="0.76"/><path d="M227.5 300 L227.5 216.75
      Q320 105.75 412.5 216.75 L412.5 300"
      fill="none" stroke="#2A1220" stroke-width="6.7" opacity="0.62"/><path d="M243.75 300 L243.75 231.375
      Q320 139.875 396.25 231.375 L396.25 300"
      fill="none" stroke="#2A1220" stroke-width="5.5" opacity="0.48"/><path d="M260 300 L260 246
      Q320 174 380 246 L380 300"
      fill="none" stroke="#2A1220" stroke-width="4.3" opacity="0.34"/>
<g transform="translate(117 254) rotate(16)" opacity="0.26">
<rect x="0" y="0" width="51" height="5" rx="2.5" fill="#E8DCC8"/>
<circle cx="0" cy="2.5" r="4.4" fill="#E8DCC8"/><circle cx="51" cy="2.5" r="4.4" fill="#E8DCC8"/></g><g transform="translate(47 268) rotate(-22)" opacity="0.20">
<rect x="0" y="0" width="50" height="5" rx="2.5" fill="#E8DCC8"/>
<circle cx="0" cy="2.5" r="4.4" fill="#E8DCC8"/><circle cx="50" cy="2.5" r="4.4" fill="#E8DCC8"/></g><g transform="translate(553 270) rotate(-8)" opacity="0.31">
<rect x="0" y="0" width="31" height="5" rx="2.5" fill="#E8DCC8"/>
<circle cx="0" cy="2.5" r="4.4" fill="#E8DCC8"/><circle cx="31" cy="2.5" r="4.4" fill="#E8DCC8"/></g><g transform="translate(156 338) rotate(-22)" opacity="0.27">
<rect x="0" y="0" width="32" height="5" rx="2.5" fill="#E8DCC8"/>
<circle cx="0" cy="2.5" r="4.4" fill="#E8DCC8"/><circle cx="32" cy="2.5" r="4.4" fill="#E8DCC8"/></g><g transform="translate(471 315) rotate(-9)" opacity="0.34">
<rect x="0" y="0" width="65" height="5" rx="2.5" fill="#E8DCC8"/>
<circle cx="0" cy="2.5" r="4.4" fill="#E8DCC8"/><circle cx="65" cy="2.5" r="4.4" fill="#E8DCC8"/></g><g transform="translate(98 320) rotate(19)" opacity="0.17">
<rect x="0" y="0" width="59" height="5" rx="2.5" fill="#E8DCC8"/>
<circle cx="0" cy="2.5" r="4.4" fill="#E8DCC8"/><circle cx="59" cy="2.5" r="4.4" fill="#E8DCC8"/></g><g transform="translate(99 302) rotate(10)" opacity="0.21">
<rect x="0" y="0" width="57" height="5" rx="2.5" fill="#E8DCC8"/>
<circle cx="0" cy="2.5" r="4.4" fill="#E8DCC8"/><circle cx="57" cy="2.5" r="4.4" fill="#E8DCC8"/></g><g transform="translate(239 268) rotate(-24)" opacity="0.27">
<rect x="0" y="0" width="32" height="5" rx="2.5" fill="#E8DCC8"/>
<circle cx="0" cy="2.5" r="4.4" fill="#E8DCC8"/><circle cx="32" cy="2.5" r="4.4" fill="#E8DCC8"/></g><g transform="translate(100 295) rotate(-20)" opacity="0.23">
<rect x="0" y="0" width="59" height="5" rx="2.5" fill="#E8DCC8"/>
<circle cx="0" cy="2.5" r="4.4" fill="#E8DCC8"/><circle cx="59" cy="2.5" r="4.4" fill="#E8DCC8"/></g><g transform="translate(245 339) rotate(-23)" opacity="0.19">
<rect x="0" y="0" width="64" height="5" rx="2.5" fill="#E8DCC8"/>
<circle cx="0" cy="2.5" r="4.4" fill="#E8DCC8"/><circle cx="64" cy="2.5" r="4.4" fill="#E8DCC8"/></g><g transform="translate(554 251) rotate(17)" opacity="0.35">
<rect x="0" y="0" width="45" height="5" rx="2.5" fill="#E8DCC8"/>
<circle cx="0" cy="2.5" r="4.4" fill="#E8DCC8"/><circle cx="45" cy="2.5" r="4.4" fill="#E8DCC8"/></g><g transform="translate(243 260) rotate(-7)" opacity="0.32">
<rect x="0" y="0" width="32" height="5" rx="2.5" fill="#E8DCC8"/>
<circle cx="0" cy="2.5" r="4.4" fill="#E8DCC8"/><circle cx="32" cy="2.5" r="4.4" fill="#E8DCC8"/></g><g transform="translate(399 284) rotate(17)" opacity="0.21">
<rect x="0" y="0" width="50" height="5" rx="2.5" fill="#E8DCC8"/>
<circle cx="0" cy="2.5" r="4.4" fill="#E8DCC8"/><circle cx="50" cy="2.5" r="4.4" fill="#E8DCC8"/></g><g transform="translate(350 314) rotate(2)" opacity="0.29">
<rect x="0" y="0" width="33" height="5" rx="2.5" fill="#E8DCC8"/>
<circle cx="0" cy="2.5" r="4.4" fill="#E8DCC8"/><circle cx="33" cy="2.5" r="4.4" fill="#E8DCC8"/></g>
<g transform="translate(320 196)">
  <ellipse cx="0" cy="86" rx="104" ry="16" fill="#0C0409" opacity=".65"/>
  <!-- cranium -->
  <path d="M-72 6 C-72 -62 -40 -96 0 -96 C40 -96 72 -62 72 6 C72 36 60 52 42 60
           L38 86 C38 94 30 98 20 98 L-20 98 C-30 98 -38 94 -38 86 L-42 60
           C-60 52 -72 36 -72 6 Z" fill="url(#bcBone)"/>
  <!-- eye sockets -->
  <path d="M-52 -6 C-52 -30 -34 -40 -22 -34 C-12 -29 -12 -6 -22 2 C-34 11 -52 8 -52 -6 Z" fill="#160810"/>
  <path d="M52 -6 C52 -30 34 -40 22 -34 C12 -29 12 -6 22 2 C34 11 52 8 52 -6 Z" fill="#160810"/>
  <circle cx="-32" cy="-12" r="7" fill="#FF3D77"/><circle cx="32" cy="-12" r="7" fill="#FF3D77"/>
  <circle cx="-32" cy="-12" r="14" fill="#FF3D77" opacity=".28"/><circle cx="32" cy="-12" r="14" fill="#FF3D77" opacity=".28"/>
  <!-- nose + teeth -->
  <path d="M0 6 L-11 30 L0 34 L11 30 Z" fill="#160810"/>
  <g fill="#160810">
    <rect x="-30" y="58" width="9" height="17" rx="2"/><rect x="-16" y="58" width="9" height="20" rx="2"/>
    <rect x="-2" y="58" width="9" height="21" rx="2"/><rect x="12" y="58" width="9" height="20" rx="2"/>
    <rect x="24" y="58" width="9" height="16" rx="2"/>
  </g>
  <!-- crown -->
  <path d="M-84 -84 L-84 -120 L-58 -96 L-30 -140 L0 -104 L30 -140 L58 -96 L84 -120 L84 -84
           C50 -98 -50 -98 -84 -84 Z" fill="url(#bcGold)"/>
  <circle cx="-30" cy="-132" r="6" fill="#FF4D7D"/><circle cx="30" cy="-132" r="6" fill="#FF4D7D"/>
  <circle cx="0" cy="-98" r="7" fill="#FF4D7D"/>
  <rect x="-84" y="-90" width="168" height="11" rx="5" fill="#B8801A"/>
</g>
</svg>
