<svg xmlns="http://www.w3.org/2000/svg" viewBox="0 0 640 360" width="640" height="360" role="img">
<defs><linearGradient id="gsBg" x1="0" y1="0" x2="0" y2="1">
      <stop offset="0" stop-color="#1A0733"/><stop offset="0.5" stop-color="#2B0B44"/>
      <stop offset="1" stop-color="#08040F"/></linearGradient>
     <linearGradient id="gsFloor" x1="0" y1="0" x2="0" y2="1">
      <stop offset="0" stop-color="#2A0E3F"/><stop offset="1" stop-color="#070310"/></linearGradient></defs>
<rect width="640" height="360" fill="url(#gsBg)"/>
<rect x="0" y="0" width="160" height="360" fill="#0D0520"/>
<rect x="480" y="0" width="160" height="360" fill="#0D0520"/>
<rect x="559" y="138" width="6" height="7" fill="#33E1FF" opacity="0.31"/><rect x="50" y="246" width="4" height="4" fill="#FFC24D" opacity="0.34"/><rect x="515" y="175" width="6" height="6" fill="#33E1FF" opacity="0.55"/><rect x="544" y="87" width="3" height="7" fill="#33E1FF" opacity="0.79"/><rect x="40" y="195" width="7" height="10" fill="#FFC24D" opacity="0.85"/><rect x="567" y="259" width="6" height="9" fill="#33E1FF" opacity="0.47"/><rect x="97" y="204" width="3" height="4" fill="#FF3D8B" opacity="0.52"/><rect x="611" y="43" width="3" height="4" fill="#33E1FF" opacity="0.87"/><rect x="565" y="226" width="4" height="10" fill="#FF3D8B" opacity="0.82"/><rect x="616" y="46" width="7" height="9" fill="#FF3D8B" opacity="0.65"/><rect x="15" y="121" width="8" height="10" fill="#33E1FF" opacity="0.40"/><rect x="41" y="27" width="5" height="7" fill="#FFC24D" opacity="0.54"/><rect x="526" y="226" width="4" height="5" fill="#FF3D8B" opacity="0.80"/><rect x="625" y="101" width="8" height="7" fill="#33E1FF" opacity="0.64"/><rect x="609" y="47" width="6" height="10" fill="#FF3D8B" opacity="0.83"/><rect x="621" y="236" width="5" height="9" fill="#FFC24D" opacity="0.52"/><rect x="525" y="70" width="4" height="10" fill="#33E1FF" opacity="0.75"/><rect x="92" y="263" width="7" height="8" fill="#33E1FF" opacity="0.45"/><rect x="563" y="121" width="4" height="4" fill="#FF3D8B" opacity="0.37"/><rect x="554" y="173" width="5" height="10" fill="#33E1FF" opacity="0.53"/><rect x="628" y="178" width="4" height="6" fill="#33E1FF" opacity="0.74"/><rect x="127" y="29" width="8" height="6" fill="#33E1FF" opacity="0.32"/><rect x="123" y="91" width="6" height="9" fill="#FFC24D" opacity="0.47"/><rect x="96" y="51" width="3" height="9" fill="#FF3D8B" opacity="0.44"/><rect x="99" y="143" width="7" height="9" fill="#FFC24D" opacity="0.33"/><rect x="106" y="161" width="8" height="8" fill="#FFC24D" opacity="0.44"/><rect x="44" y="39" width="7" height="9" fill="#FFC24D" opacity="0.68"/><rect x="42" y="267" width="5" height="11" fill="#FFC24D" opacity="0.44"/><rect x="49" y="247" width="7" height="7" fill="#33E1FF" opacity="0.73"/><rect x="126" y="242" width="7" height="7" fill="#FF3D8B" opacity="0.49"/><rect x="21" y="125" width="8" height="7" fill="#33E1FF" opacity="0.69"/><rect x="510" y="33" width="6" height="9" fill="#FFC24D" opacity="0.74"/><rect x="604" y="133" width="7" height="7" fill="#33E1FF" opacity="0.37"/><rect x="104" y="203" width="6" height="6" fill="#FFC24D" opacity="0.43"/><rect x="565" y="241" width="7" height="4" fill="#FFC24D" opacity="0.84"/><rect x="93" y="103" width="4" height="8" fill="#33E1FF" opacity="0.53"/><rect x="507" y="152" width="7" height="5" fill="#FF3D8B" opacity="0.36"/><rect x="604" y="199" width="6" height="7" fill="#FFC24D" opacity="0.58"/><rect x="114" y="219" width="5" height="8" fill="#FF3D8B" opacity="0.38"/><rect x="107" y="223" width="3" height="8" fill="#FF3D8B" opacity="0.72"/><rect x="566" y="210" width="3" height="7" fill="#33E1FF" opacity="0.62"/><rect x="119" y="258" width="4" height="10" fill="#FF3D8B" opacity="0.48"/><rect x="114" y="24" width="7" height="6" fill="#FF3D8B" opacity="0.35"/><rect x="42" y="79" width="6" height="7" fill="#33E1FF" opacity="0.40"/><rect x="82" y="191" width="5" height="8" fill="#33E1FF" opacity="0.44"/><rect x="104" y="138" width="7" height="9" fill="#33E1FF" opacity="0.63"/><rect x="542" y="51" width="8" height="11" fill="#FF3D8B" opacity="0.36"/><rect x="549" y="268" width="8" height="8" fill="#33E1FF" opacity="0.84"/><rect x="628" y="240" width="6" height="9" fill="#33E1FF" opacity="0.53"/><rect x="124" y="261" width="6" height="6" fill="#FFC24D" opacity="0.53"/><rect x="132" y="144" width="7" height="4" fill="#FFC24D" opacity="0.46"/><rect x="601" y="238" width="5" height="6" fill="#FF3D8B" opacity="0.48"/><rect x="119" y="64" width="6" height="9" fill="#33E1FF" opacity="0.83"/><rect x="523" y="212" width="5" height="11" fill="#33E1FF" opacity="0.76"/><rect x="524" y="67" width="4" height="9" fill="#FF3D8B" opacity="0.71"/><rect x="40" y="24" width="6" height="4" fill="#FFC24D" opacity="0.31"/><rect x="580" y="77" width="5" height="6" fill="#FF3D8B" opacity="0.50"/><rect x="549" y="93" width="7" height="5" fill="#FF3D8B" opacity="0.49"/><rect x="611" y="262" width="6" height="5" fill="#FF3D8B" opacity="0.88"/><rect x="90" y="204" width="3" height="10" fill="#33E1FF" opacity="0.58"/><rect x="47" y="245" width="3" height="7" fill="#FF3D8B" opacity="0.50"/><rect x="577" y="39" width="3" height="9" fill="#33E1FF" opacity="0.73"/><rect x="565" y="210" width="3" height="11" fill="#33E1FF" opacity="0.78"/><rect x="565" y="255" width="7" height="6" fill="#33E1FF" opacity="0.56"/><rect x="584" y="260" width="8" height="10" fill="#FF3D8B" opacity="0.39"/><rect x="103" y="36" width="8" height="11" fill="#FFC24D" opacity="0.51"/><rect x="105" y="87" width="6" height="5" fill="#FF3D8B" opacity="0.47"/><rect x="124" y="232" width="4" height="6" fill="#FFC24D" opacity="0.34"/><rect x="615" y="91" width="4" height="7" fill="#33E1FF" opacity="0.44"/><rect x="40" y="254" width="4" height="6" fill="#FF3D8B" opacity="0.39"/><rect x="503" y="200" width="6" height="10" fill="#33E1FF" opacity="0.57"/><rect x="563" y="66" width="6" height="8" fill="#33E1FF" opacity="0.41"/><rect x="73" y="177" width="4" height="7" fill="#FFC24D" opacity="0.36"/><rect x="66" y="30" width="3" height="11" fill="#FF3D8B" opacity="0.33"/><rect x="15" y="236" width="3" height="5" fill="#FF3D8B" opacity="0.33"/><rect x="88" y="150" width="4" height="5" fill="#FFC24D" opacity="0.89"/><rect x="45" y="158" width="8" height="11" fill="#33E1FF" opacity="0.58"/><rect x="106" y="163" width="7" height="5" fill="#FF3D8B" opacity="0.83"/><rect x="64" y="152" width="5" height="8" fill="#FFC24D" opacity="0.37"/><rect x="587" y="93" width="3" height="9" fill="#FFC24D" opacity="0.77"/><rect x="137" y="202" width="7" height="9" fill="#33E1FF" opacity="0.55"/><rect x="588" y="42" width="8" height="10" fill="#33E1FF" opacity="0.34"/><rect x="107" y="137" width="7" height="7" fill="#FF3D8B" opacity="0.55"/><rect x="504" y="170" width="4" height="5" fill="#33E1FF" opacity="0.45"/><rect x="118" y="175" width="7" height="4" fill="#33E1FF" opacity="0.52"/><rect x="127" y="197" width="4" height="5" fill="#33E1FF" opacity="0.64"/><rect x="95" y="228" width="7" height="8" fill="#33E1FF" opacity="0.78"/><rect x="133" y="166" width="5" height="7" fill="#33E1FF" opacity="0.47"/><rect x="521" y="155" width="6" height="10" fill="#FF3D8B" opacity="0.70"/><rect x="503" y="127" width="6" height="9" fill="#33E1FF" opacity="0.51"/><rect x="39" y="70" width="3" height="5" fill="#FFC24D" opacity="0.40"/><rect x="13" y="157" width="4" height="8" fill="#FF3D8B" opacity="0.33"/><rect x="536" y="198" width="3" height="6" fill="#FFC24D" opacity="0.57"/><rect x="630" y="80" width="8" height="6" fill="#33E1FF" opacity="0.50"/><rect x="37" y="105" width="7" height="5" fill="#33E1FF" opacity="0.41"/><rect x="108" y="150" width="6" height="6" fill="#FF3D8B" opacity="0.74"/><rect x="553" y="108" width="5" height="10" fill="#FF3D8B" opacity="0.32"/><rect x="591" y="199" width="6" height="6" fill="#33E1FF" opacity="0.79"/><rect x="627" y="226" width="7" height="10" fill="#FF3D8B" opacity="0.58"/><rect x="562" y="145" width="5" height="9" fill="#FF3D8B" opacity="0.85"/><rect x="603" y="226" width="4" height="7" fill="#33E1FF" opacity="0.74"/><rect x="583" y="233" width="4" height="6" fill="#FF3D8B" opacity="0.72"/><rect x="25" y="145" width="7" height="6" fill="#FF3D8B" opacity="0.77"/><rect x="526" y="98" width="5" height="5" fill="#FFC24D" opacity="0.77"/><rect x="81" y="98" width="7" height="8" fill="#FF3D8B" opacity="0.78"/><rect x="539" y="247" width="3" height="9" fill="#FF3D8B" opacity="0.63"/><rect x="93" y="110" width="7" height="7" fill="#33E1FF" opacity="0.71"/><rect x="621" y="170" width="5" height="5" fill="#33E1FF" opacity="0.39"/><rect x="136" y="151" width="3" height="8" fill="#FFC24D" opacity="0.57"/><rect x="583" y="62" width="7" height="10" fill="#FF3D8B" opacity="0.48"/><rect x="589" y="227" width="4" height="9" fill="#FF3D8B" opacity="0.71"/><rect x="117" y="138" width="5" height="9" fill="#FF3D8B" opacity="0.50"/><rect x="119" y="168" width="5" height="9" fill="#FF3D8B" opacity="0.47"/><rect x="546" y="60" width="4" height="11" fill="#33E1FF" opacity="0.81"/><rect x="560" y="104" width="6" height="4" fill="#FF3D8B" opacity="0.68"/><rect x="128" y="94" width="8" height="9" fill="#33E1FF" opacity="0.45"/><rect x="37" y="52" width="7" height="7" fill="#FF3D8B" opacity="0.46"/><rect x="133" y="183" width="6" height="9" fill="#FF3D8B" opacity="0.83"/><rect x="571" y="269" width="3" height="9" fill="#FF3D8B" opacity="0.51"/><rect x="523" y="246" width="5" height="7" fill="#FFC24D" opacity="0.40"/>
<rect x="160" y="286" width="320" height="74" fill="url(#gsFloor)"/>
<g opacity=".85">
  <rect x="176" y="58" width="26" height="150" rx="4" fill="#FF2D7A" opacity=".9"/>
  <rect x="182" y="66" width="14" height="134" rx="3" fill="#FF8FBC" opacity=".7"/>
  <rect x="440" y="96" width="22" height="112" rx="4" fill="#22D3FF" opacity=".9"/>
  <rect x="445" y="104" width="12" height="96" rx="3" fill="#A6EEFF" opacity=".7"/>
</g>
<ellipse cx="320" cy="330" rx="170" ry="30" fill="#FF2D7A" opacity=".14"/>
<ellipse cx="320" cy="318" rx="120" ry="18" fill="#22D3FF" opacity=".1"/>
<g transform="translate(320 300)">
  <ellipse cx="0" cy="8" rx="40" ry="9" fill="#000" opacity=".55"/>
  <path d="M-14 0 L-22 -58 L-4 -58 L-2 0 Z" fill="#0B0616"/>
  <path d="M14 0 L26 -58 L8 -58 L4 0 Z" fill="#0B0616"/>
  <path d="M-26 -58 L-30 -122 Q-30 -136 -16 -138 L16 -138 Q30 -136 30 -122 L26 -58 Z" fill="#120A22"/>
  <path d="M-30 -122 L-52 -96 L-46 -86 L-26 -104 Z" fill="#120A22"/>
  <path d="M30 -122 L54 -100 L48 -88 L26 -104 Z" fill="#120A22"/>
  <circle cx="0" cy="-158" r="22" fill="#150C28"/>
  <path d="M-22 -160 A22 22 0 0 1 22 -160 L22 -152 L-22 -152 Z" fill="#0B0616"/>
  <rect x="-16" y="-166" width="32" height="7" rx="3.5" fill="#FF2D7A"/>
  <circle cx="17" cy="-150" r="4" fill="#22D3FF"/>
  <rect x="-30" y="-112" width="60" height="4" fill="#FF2D7A" opacity=".8"/>
  <rect x="-30" y="-100" width="34" height="3" fill="#22D3FF" opacity=".7"/>
</g>
<line x1="175" y1="156" x2="171" y2="171" stroke="#8FD9FF" stroke-width="1" opacity="0.21"/><line x1="589" y1="6" x2="585" y2="21" stroke="#8FD9FF" stroke-width="1" opacity="0.40"/><line x1="132" y1="135" x2="128" y2="150" stroke="#8FD9FF" stroke-width="1" opacity="0.37"/><line x1="436" y1="320" x2="432" y2="335" stroke="#8FD9FF" stroke-width="1" opacity="0.40"/><line x1="535" y1="340" x2="531" y2="355" stroke="#8FD9FF" stroke-width="1" opacity="0.15"/><line x1="378" y1="334" x2="374" y2="349" stroke="#8FD9FF" stroke-width="1" opacity="0.34"/><line x1="271" y1="198" x2="267" y2="213" stroke="#8FD9FF" stroke-width="1" opacity="0.10"/><line x1="334" y1="358" x2="330" y2="373" stroke="#8FD9FF" stroke-width="1" opacity="0.32"/><line x1="549" y1="156" x2="545" y2="171" stroke="#8FD9FF" stroke-width="1" opacity="0.31"/><line x1="73" y1="135" x2="69" y2="150" stroke="#8FD9FF" stroke-width="1" opacity="0.17"/><line x1="593" y1="182" x2="589" y2="197" stroke="#8FD9FF" stroke-width="1" opacity="0.31"/><line x1="204" y1="291" x2="200" y2="306" stroke="#8FD9FF" stroke-width="1" opacity="0.40"/><line x1="1" y1="74" x2="-3" y2="89" stroke="#8FD9FF" stroke-width="1" opacity="0.28"/><line x1="194" y1="340" x2="190" y2="355" stroke="#8FD9FF" stroke-width="1" opacity="0.14"/><line x1="582" y1="63" x2="578" y2="78" stroke="#8FD9FF" stroke-width="1" opacity="0.23"/><line x1="43" y1="166" x2="39" y2="181" stroke="#8FD9FF" stroke-width="1" opacity="0.23"/><line x1="506" y1="94" x2="502" y2="109" stroke="#8FD9FF" stroke-width="1" opacity="0.18"/><line x1="441" y1="29" x2="437" y2="44" stroke="#8FD9FF" stroke-width="1" opacity="0.17"/><line x1="415" y1="198" x2="411" y2="213" stroke="#8FD9FF" stroke-width="1" opacity="0.35"/><line x1="382" y1="130" x2="378" y2="145" stroke="#8FD9FF" stroke-width="1" opacity="0.27"/><line x1="318" y1="243" x2="314" y2="258" stroke="#8FD9FF" stroke-width="1" opacity="0.34"/><line x1="614" y1="199" x2="610" y2="214" stroke="#8FD9FF" stroke-width="1" opacity="0.18"/><line x1="574" y1="270" x2="570" y2="285" stroke="#8FD9FF" stroke-width="1" opacity="0.11"/><line x1="319" y1="64" x2="315" y2="79" stroke="#8FD9FF" stroke-width="1" opacity="0.23"/><line x1="216" y1="158" x2="212" y2="173" stroke="#8FD9FF" stroke-width="1" opacity="0.28"/><line x1="553" y1="196" x2="549" y2="211" stroke="#8FD9FF" stroke-width="1" opacity="0.13"/><line x1="485" y1="279" x2="481" y2="294" stroke="#8FD9FF" stroke-width="1" opacity="0.35"/><line x1="351" y1="248" x2="347" y2="263" stroke="#8FD9FF" stroke-width="1" opacity="0.27"/><line x1="443" y1="286" x2="439" y2="301" stroke="#8FD9FF" stroke-width="1" opacity="0.31"/><line x1="302" y1="294" x2="298" y2="309" stroke="#8FD9FF" stroke-width="1" opacity="0.40"/><line x1="114" y1="53" x2="110" y2="68" stroke="#8FD9FF" stroke-width="1" opacity="0.22"/><line x1="439" y1="359" x2="435" y2="374" stroke="#8FD9FF" stroke-width="1" opacity="0.21"/><line x1="507" y1="79" x2="503" y2="94" stroke="#8FD9FF" stroke-width="1" opacity="0.39"/><line x1="277" y1="49" x2="273" y2="64" stroke="#8FD9FF" stroke-width="1" opacity="0.19"/><line x1="216" y1="300" x2="212" y2="315" stroke="#8FD9FF" stroke-width="1" opacity="0.32"/><line x1="326" y1="138" x2="322" y2="153" stroke="#8FD9FF" stroke-width="1" opacity="0.28"/><line x1="427" y1="257" x2="423" y2="272" stroke="#8FD9FF" stroke-width="1" opacity="0.35"/><line x1="539" y1="59" x2="535" y2="74" stroke="#8FD9FF" stroke-width="1" opacity="0.30"/><line x1="204" y1="109" x2="200" y2="124" stroke="#8FD9FF" stroke-width="1" opacity="0.17"/><line x1="283" y1="16" x2="279" y2="31" stroke="#8FD9FF" stroke-width="1" opacity="0.34"/><line x1="304" y1="349" x2="300" y2="364" stroke="#8FD9FF" stroke-width="1" opacity="0.17"/><line x1="389" y1="342" x2="385" y2="357" stroke="#8FD9FF" stroke-width="1" opacity="0.17"/><line x1="532" y1="357" x2="528" y2="372" stroke="#8FD9FF" stroke-width="1" opacity="0.32"/><line x1="8" y1="249" x2="4" y2="264" stroke="#8FD9FF" stroke-width="1" opacity="0.14"/><line x1="104" y1="131" x2="100" y2="146" stroke="#8FD9FF" stroke-width="1" opacity="0.24"/><line x1="616" y1="70" x2="612" y2="85" stroke="#8FD9FF" stroke-width="1" opacity="0.27"/><line x1="563" y1="256" x2="559" y2="271" stroke="#8FD9FF" stroke-width="1" opacity="0.13"/><line x1="386" y1="119" x2="382" y2="134" stroke="#8FD9FF" stroke-width="1" opacity="0.36"/><line x1="17" y1="91" x2="13" y2="106" stroke="#8FD9FF" stroke-width="1" opacity="0.16"/><line x1="295" y1="161" x2="291" y2="176" stroke="#8FD9FF" stroke-width="1" opacity="0.11"/><line x1="236" y1="125" x2="232" y2="140" stroke="#8FD9FF" stroke-width="1" opacity="0.18"/><line x1="414" y1="208" x2="410" y2="223" stroke="#8FD9FF" stroke-width="1" opacity="0.20"/><line x1="192" y1="70" x2="188" y2="85" stroke="#8FD9FF" stroke-width="1" opacity="0.14"/><line x1="525" y1="37" x2="521" y2="52" stroke="#8FD9FF" stroke-width="1" opacity="0.16"/><line x1="143" y1="50" x2="139" y2="65" stroke="#8FD9FF" stroke-width="1" opacity="0.14"/><line x1="587" y1="131" x2="583" y2="146" stroke="#8FD9FF" stroke-width="1" opacity="0.20"/><line x1="165" y1="302" x2="161" y2="317" stroke="#8FD9FF" stroke-width="1" opacity="0.34"/><line x1="113" y1="63" x2="109" y2="78" stroke="#8FD9FF" stroke-width="1" opacity="0.21"/><line x1="98" y1="12" x2="94" y2="27" stroke="#8FD9FF" stroke-width="1" opacity="0.24"/><line x1="535" y1="27" x2="531" y2="42" stroke="#8FD9FF" stroke-width="1" opacity="0.18"/><line x1="549" y1="258" x2="545" y2="273" stroke="#8FD9FF" stroke-width="1" opacity="0.12"/><line x1="367" y1="353" x2="363" y2="368" stroke="#8FD9FF" stroke-width="1" opacity="0.24"/><line x1="244" y1="322" x2="240" y2="337" stroke="#8FD9FF" stroke-width="1" opacity="0.29"/><line x1="157" y1="22" x2="153" y2="37" stroke="#8FD9FF" stroke-width="1" opacity="0.11"/><line x1="596" y1="224" x2="592" y2="239" stroke="#8FD9FF" stroke-width="1" opacity="0.38"/><line x1="279" y1="355" x2="275" y2="370" stroke="#8FD9FF" stroke-width="1" opacity="0.15"/><line x1="466" y1="166" x2="462" y2="181" stroke="#8FD9FF" stroke-width="1" opacity="0.29"/><line x1="610" y1="315" x2="606" y2="330" stroke="#8FD9FF" stroke-width="1" opacity="0.20"/><line x1="624" y1="63" x2="620" y2="78" stroke="#8FD9FF" stroke-width="1" opacity="0.36"/><line x1="23" y1="270" x2="19" y2="285" stroke="#8FD9FF" stroke-width="1" opacity="0.15"/><line x1="573" y1="83" x2="569" y2="98" stroke="#8FD9FF" stroke-width="1" opacity="0.23"/><line x1="239" y1="192" x2="235" y2="207" stroke="#8FD9FF" stroke-width="1" opacity="0.37"/><line x1="92" y1="231" x2="88" y2="246" stroke="#8FD9FF" stroke-width="1" opacity="0.12"/><line x1="128" y1="89" x2="124" y2="104" stroke="#8FD9FF" stroke-width="1" opacity="0.31"/><line x1="510" y1="37" x2="506" y2="52" stroke="#8FD9FF" stroke-width="1" opacity="0.14"/><line x1="58" y1="330" x2="54" y2="345" stroke="#8FD9FF" stroke-width="1" opacity="0.24"/><line x1="602" y1="130" x2="598" y2="145" stroke="#8FD9FF" stroke-width="1" opacity="0.14"/><line x1="357" y1="239" x2="353" y2="254" stroke="#8FD9FF" stroke-width="1" opacity="0.11"/><line x1="207" y1="199" x2="203" y2="214" stroke="#8FD9FF" stroke-width="1" opacity="0.14"/><line x1="606" y1="239" x2="602" y2="254" stroke="#8FD9FF" stroke-width="1" opacity="0.22"/><line x1="80" y1="243" x2="76" y2="258" stroke="#8FD9FF" stroke-width="1" opacity="0.27"/><line x1="355" y1="110" x2="351" y2="125" stroke="#8FD9FF" stroke-width="1" opacity="0.12"/><line x1="482" y1="231" x2="478" y2="246" stroke="#8FD9FF" stroke-width="1" opacity="0.13"/><line x1="99" y1="260" x2="95" y2="275" stroke="#8FD9FF" stroke-width="1" opacity="0.25"/><line x1="283" y1="48" x2="279" y2="63" stroke="#8FD9FF" stroke-width="1" opacity="0.31"/><line x1="143" y1="268" x2="139" y2="283" stroke="#8FD9FF" stroke-width="1" opacity="0.23"/><line x1="287" y1="305" x2="283" y2="320" stroke="#8FD9FF" stroke-width="1" opacity="0.35"/><line x1="74" y1="299" x2="70" y2="314" stroke="#8FD9FF" stroke-width="1" opacity="0.33"/><line x1="138" y1="336" x2="134" y2="351" stroke="#8FD9FF" stroke-width="1" opacity="0.22"/><line x1="43" y1="284" x2="39" y2="299" stroke="#8FD9FF" stroke-width="1" opacity="0.12"/>
</svg>
