<svg xmlns="http://www.w3.org/2000/svg" viewBox="0 0 640 360" width="640" height="360" role="img">
<defs><linearGradient id="mhBg" x1="0" y1="0" x2="0" y2="1">
    <stop offset="0" stop-color="#0B0B0D"/><stop offset="1" stop-color="#16161A"/></linearGradient>
   <linearGradient id="mhDoor" x1="0" y1="0" x2="0" y2="1">
    <stop offset="0" stop-color="#D9C48C"/><stop offset="1" stop-color="#6B5A31"/></linearGradient>
   <radialGradient id="mhSpill" cx="50%" cy="46%" r="52%">
    <stop offset="0" stop-color="#F3E0A8" stop-opacity=".55"/><stop offset="1" stop-color="#F3E0A8" stop-opacity="0"/></radialGradient></defs>
<rect width="640" height="360" fill="url(#mhBg)"/>
<line x1="0" y1="0" x2="640" y2="0" stroke="#22222A" stroke-width="1"/><line x1="0" y1="32" x2="640" y2="32" stroke="#22222A" stroke-width="1"/><line x1="0" y1="64" x2="640" y2="64" stroke="#22222A" stroke-width="1"/><line x1="0" y1="96" x2="640" y2="96" stroke="#22222A" stroke-width="1"/><line x1="0" y1="128" x2="640" y2="128" stroke="#22222A" stroke-width="1"/><line x1="0" y1="160" x2="640" y2="160" stroke="#22222A" stroke-width="1"/><line x1="0" y1="192" x2="640" y2="192" stroke="#22222A" stroke-width="1"/><line x1="0" y1="224" x2="640" y2="224" stroke="#22222A" stroke-width="1"/><line x1="0" y1="256" x2="640" y2="256" stroke="#22222A" stroke-width="1"/><line x1="0" y1="288" x2="640" y2="288" stroke="#22222A" stroke-width="1"/><line x1="0" y1="320" x2="640" y2="320" stroke="#22222A" stroke-width="1"/><line x1="0" y1="352" x2="640" y2="352" stroke="#22222A" stroke-width="1"/>
<line x1="0" y1="0" x2="0" y2="360" stroke="#22222A" stroke-width="1"/><line x1="34" y1="0" x2="34" y2="360" stroke="#22222A" stroke-width="1"/><line x1="68" y1="0" x2="68" y2="360" stroke="#22222A" stroke-width="1"/><line x1="102" y1="0" x2="102" y2="360" stroke="#22222A" stroke-width="1"/><line x1="136" y1="0" x2="136" y2="360" stroke="#22222A" stroke-width="1"/><line x1="170" y1="0" x2="170" y2="360" stroke="#22222A" stroke-width="1"/><line x1="204" y1="0" x2="204" y2="360" stroke="#22222A" stroke-width="1"/><line x1="238" y1="0" x2="238" y2="360" stroke="#22222A" stroke-width="1"/><line x1="272" y1="0" x2="272" y2="360" stroke="#22222A" stroke-width="1"/><line x1="306" y1="0" x2="306" y2="360" stroke="#22222A" stroke-width="1"/><line x1="340" y1="0" x2="340" y2="360" stroke="#22222A" stroke-width="1"/><line x1="374" y1="0" x2="374" y2="360" stroke="#22222A" stroke-width="1"/><line x1="408" y1="0" x2="408" y2="360" stroke="#22222A" stroke-width="1"/><line x1="442" y1="0" x2="442" y2="360" stroke="#22222A" stroke-width="1"/><line x1="476" y1="0" x2="476" y2="360" stroke="#22222A" stroke-width="1"/><line x1="510" y1="0" x2="510" y2="360" stroke="#22222A" stroke-width="1"/><line x1="544" y1="0" x2="544" y2="360" stroke="#22222A" stroke-width="1"/><line x1="578" y1="0" x2="578" y2="360" stroke="#22222A" stroke-width="1"/><line x1="612" y1="0" x2="612" y2="360" stroke="#22222A" stroke-width="1"/><line x1="646" y1="0" x2="646" y2="360" stroke="#22222A" stroke-width="1"/>
<circle cx="320" cy="166" r="150" fill="url(#mhSpill)"/>
<rect x="170" y="40" width="300" height="300"
      fill="none" stroke="#3B3B46" stroke-width="3.0" transform="rotate(0.0 320 190)"/><rect x="210" y="60" width="249" height="249"
      fill="none" stroke="#3B3B46" stroke-width="2.6" transform="rotate(2.4 334 184)"/><rect x="249" y="79" width="198" height="198"
      fill="none" stroke="#3B3B46" stroke-width="2.2" transform="rotate(4.8 348 178)"/><rect x="289" y="99" width="147" height="147"
      fill="none" stroke="#3B3B46" stroke-width="1.8" transform="rotate(7.2 362 172)"/><rect x="328" y="118" width="96" height="96"
      fill="none" stroke="#3B3B46" stroke-width="1.4" transform="rotate(9.6 376 166)"/>
<g transform="translate(304 196)">
  <rect x="-52" y="-96" width="104" height="192" rx="3" fill="#100F12"/>
  <rect x="-46" y="-90" width="92" height="180" rx="2" fill="url(#mhDoor)" opacity=".92"/>
  <rect x="-38" y="-80" width="76" height="160" fill="#F7ECC8" opacity=".22"/>
  <circle cx="32" cy="6" r="5" fill="#3A3227"/>
</g>
<g stroke="#C9A227" stroke-width="2" opacity=".85">
  <line x1="120" y1="300" x2="520" y2="300"/>
  <line x1="120" y1="294" x2="120" y2="312"/><line x1="170" y1="294" x2="170" y2="306"/><line x1="220" y1="294" x2="220" y2="312"/><line x1="270" y1="294" x2="270" y2="306"/><line x1="320" y1="294" x2="320" y2="312"/><line x1="370" y1="294" x2="370" y2="306"/><line x1="420" y1="294" x2="420" y2="312"/><line x1="470" y1="294" x2="470" y2="306"/><line x1="520" y1="294" x2="520" y2="312"/>
</g>
<text x="320" y="336" text-anchor="middle" font-family="ui-monospace,Menlo,monospace" font-size="13" letter-spacing="4" fill="#8A8270">4.11 m / 3.86 m</text>
</svg>
