<svg xmlns="http://www.w3.org/2000/svg" viewBox="0 0 640 360" width="640" height="360" role="img">
<defs>
<linearGradient id="sky" x1="0" y1="0" x2="0" y2="1">
<stop offset="0" stop-color="hsl(292 70% 42%)"/>
<stop offset="0.58" stop-color="hsl(280 62% 20%)"/>
<stop offset="1" stop-color="hsl(274 54% 10%)"/>
</linearGradient>

</defs>
<rect width="640" height="360" fill="url(#sky)"/>
<rect x="0" y="165.6" width="640" height="194.4" fill="hsl(262 62% 4%)"/>
<circle cx="320" cy="165.6" r="120" fill="hsl(322 90% 62% / 0.28)"/><path d="M320 165.6 L-1180 360 " stroke="hsl(312 80% 60% / 0.22)" stroke-width="1.5" fill="none"/><path d="M320 165.6 L-1030 360 " stroke="hsl(312 80% 60% / 0.22)" stroke-width="1.5" fill="none"/><path d="M320 165.6 L-880 360 " stroke="hsl(312 80% 60% / 0.22)" stroke-width="1.5" fill="none"/><path d="M320 165.6 L-730 360 " stroke="hsl(312 80% 60% / 0.22)" stroke-width="1.5" fill="none"/><path d="M320 165.6 L-580 360 " stroke="hsl(312 80% 60% / 0.22)" stroke-width="1.5" fill="none"/><path d="M320 165.6 L-430 360 " stroke="hsl(312 80% 60% / 0.22)" stroke-width="1.5" fill="none"/><path d="M320 165.6 L-280 360 " stroke="hsl(312 80% 60% / 0.22)" stroke-width="1.5" fill="none"/><path d="M320 165.6 L-130 360 " stroke="hsl(312 80% 60% / 0.22)" stroke-width="1.5" fill="none"/><path d="M320 165.6 L20 360 " stroke="hsl(312 80% 60% / 0.22)" stroke-width="1.5" fill="none"/><path d="M320 165.6 L170 360 " stroke="hsl(312 80% 60% / 0.22)" stroke-width="1.5" fill="none"/><path d="M320 165.6 L320 360 " stroke="hsl(312 80% 60% / 0.22)" stroke-width="1.5" fill="none"/><path d="M320 165.6 L470 360 " stroke="hsl(312 80% 60% / 0.22)" stroke-width="1.5" fill="none"/><path d="M320 165.6 L620 360 " stroke="hsl(312 80% 60% / 0.22)" stroke-width="1.5" fill="none"/><path d="M320 165.6 L770 360 " stroke="hsl(312 80% 60% / 0.22)" stroke-width="1.5" fill="none"/><path d="M320 165.6 L920 360 " stroke="hsl(312 80% 60% / 0.22)" stroke-width="1.5" fill="none"/><path d="M320 165.6 L1070 360 " stroke="hsl(312 80% 60% / 0.22)" stroke-width="1.5" fill="none"/><path d="M320 165.6 L1220 360 " stroke="hsl(312 80% 60% / 0.22)" stroke-width="1.5" fill="none"/><path d="M320 165.6 L1370 360 " stroke="hsl(312 80% 60% / 0.22)" stroke-width="1.5" fill="none"/><path d="M320 165.6 L1520 360 " stroke="hsl(312 80% 60% / 0.22)" stroke-width="1.5" fill="none"/><path d="M320 165.6 L1670 360 " stroke="hsl(312 80% 60% / 0.22)" stroke-width="1.5" fill="none"/><path d="M320 165.6 L1820 360 " stroke="hsl(312 80% 60% / 0.22)" stroke-width="1.5" fill="none"/><line x1="0" y1="167" x2="640" y2="167" stroke="hsl(322 85% 64% / 0.2)" stroke-width="0.3"/><line x1="0" y1="173" x2="640" y2="173" stroke="hsl(322 85% 64% / 0.2)" stroke-width="0.7"/><line x1="0" y1="183" x2="640" y2="183" stroke="hsl(322 85% 64% / 0.2)" stroke-width="1.0"/><line x1="0" y1="198" x2="640" y2="198" stroke="hsl(322 85% 64% / 0.2)" stroke-width="1.4"/><line x1="0" y1="219" x2="640" y2="219" stroke="hsl(322 85% 64% / 0.2)" stroke-width="1.8"/><line x1="0" y1="245" x2="640" y2="245" stroke="hsl(322 85% 64% / 0.2)" stroke-width="2.1"/><line x1="0" y1="277" x2="640" y2="277" stroke="hsl(322 85% 64% / 0.2)" stroke-width="2.4"/><line x1="0" y1="316" x2="640" y2="316" stroke="hsl(322 85% 64% / 0.2)" stroke-width="2.8"/><rect x="286" y="257.6" width="26" height="9" rx="4" fill="hsl(342 95% 64%)"/>
<rect x="330" y="257.6" width="26" height="9" rx="4" fill="hsl(342 95% 64%)"/><circle cx="15" cy="157" r="0.3" fill="hsl(332 60% 86% / 0.5)"/><circle cx="423" cy="39" r="0.9" fill="hsl(332 60% 86% / 0.5)"/><circle cx="126" cy="76" r="0.5" fill="hsl(332 60% 86% / 0.5)"/><circle cx="426" cy="16" r="0.5" fill="hsl(332 60% 86% / 0.5)"/><circle cx="158" cy="90" r="1.2" fill="hsl(332 60% 86% / 0.5)"/><circle cx="186" cy="59" r="0.3" fill="hsl(332 60% 86% / 0.5)"/><circle cx="45" cy="104" r="0.5" fill="hsl(332 60% 86% / 0.5)"/><circle cx="6" cy="33" r="0.4" fill="hsl(332 60% 86% / 0.5)"/><circle cx="142" cy="118" r="0.7" fill="hsl(332 60% 86% / 0.5)"/><circle cx="76" cy="88" r="0.7" fill="hsl(332 60% 86% / 0.5)"/><circle cx="603" cy="85" r="1.1" fill="hsl(332 60% 86% / 0.5)"/><circle cx="252" cy="147" r="0.2" fill="hsl(332 60% 86% / 0.5)"/><circle cx="578" cy="86" r="0.6" fill="hsl(332 60% 86% / 0.5)"/><circle cx="6" cy="147" r="1.2" fill="hsl(332 60% 86% / 0.5)"/><circle cx="37" cy="106" r="1.3" fill="hsl(332 60% 86% / 0.5)"/><circle cx="431" cy="23" r="0.7" fill="hsl(332 60% 86% / 0.5)"/><circle cx="304" cy="70" r="0.8" fill="hsl(332 60% 86% / 0.5)"/><circle cx="591" cy="42" r="0.3" fill="hsl(332 60% 86% / 0.5)"/><circle cx="617" cy="124" r="1.0" fill="hsl(332 60% 86% / 0.5)"/><circle cx="567" cy="41" r="1.3" fill="hsl(332 60% 86% / 0.5)"/><circle cx="217" cy="84" r="0.8" fill="hsl(332 60% 86% / 0.5)"/><circle cx="287" cy="134" r="0.2" fill="hsl(332 60% 86% / 0.5)"/><circle cx="43" cy="63" r="0.2" fill="hsl(332 60% 86% / 0.5)"/><circle cx="606" cy="60" r="1.1" fill="hsl(332 60% 86% / 0.5)"/><circle cx="43" cy="41" r="0.6" fill="hsl(332 60% 86% / 0.5)"/><circle cx="434" cy="56" r="0.1" fill="hsl(332 60% 86% / 0.5)"/><circle cx="594" cy="104" r="0.1" fill="hsl(332 60% 86% / 0.5)"/><circle cx="402" cy="52" r="0.2" fill="hsl(332 60% 86% / 0.5)"/><circle cx="535" cy="117" r="0.2" fill="hsl(332 60% 86% / 0.5)"/><circle cx="608" cy="46" r="0.2" fill="hsl(332 60% 86% / 0.5)"/><circle cx="18" cy="108" r="0.7" fill="hsl(332 60% 86% / 0.5)"/><circle cx="589" cy="54" r="0.6" fill="hsl(332 60% 86% / 0.5)"/><circle cx="179" cy="9" r="0.8" fill="hsl(332 60% 86% / 0.5)"/><circle cx="73" cy="38" r="1.3" fill="hsl(332 60% 86% / 0.5)"/><circle cx="615" cy="2" r="0.5" fill="hsl(332 60% 86% / 0.5)"/><circle cx="602" cy="132" r="1.2" fill="hsl(332 60% 86% / 0.5)"/><circle cx="362" cy="127" r="0.0" fill="hsl(332 60% 86% / 0.5)"/><circle cx="49" cy="73" r="1.0" fill="hsl(332 60% 86% / 0.5)"/><circle cx="516" cy="51" r="0.2" fill="hsl(332 60% 86% / 0.5)"/><circle cx="482" cy="118" r="0.6" fill="hsl(332 60% 86% / 0.5)"/><circle cx="261" cy="130" r="0.5" fill="hsl(332 60% 86% / 0.5)"/><circle cx="400" cy="108" r="0.1" fill="hsl(332 60% 86% / 0.5)"/><circle cx="60" cy="28" r="1.2" fill="hsl(332 60% 86% / 0.5)"/><circle cx="300" cy="125" r="0.3" fill="hsl(332 60% 86% / 0.5)"/><circle cx="68" cy="80" r="0.9" fill="hsl(332 60% 86% / 0.5)"/><circle cx="133" cy="153" r="0.5" fill="hsl(332 60% 86% / 0.5)"/><circle cx="198" cy="142" r="1.0" fill="hsl(332 60% 86% / 0.5)"/><circle cx="299" cy="116" r="1.1" fill="hsl(332 60% 86% / 0.5)"/><circle cx="560" cy="25" r="0.5" fill="hsl(332 60% 86% / 0.5)"/><circle cx="378" cy="136" r="0.2" fill="hsl(332 60% 86% / 0.5)"/><circle cx="298" cy="91" r="1.0" fill="hsl(332 60% 86% / 0.5)"/><circle cx="249" cy="26" r="1.1" fill="hsl(332 60% 86% / 0.5)"/><circle cx="261" cy="78" r="0.5" fill="hsl(332 60% 86% / 0.5)"/><circle cx="401" cy="67" r="0.6" fill="hsl(332 60% 86% / 0.5)"/><circle cx="373" cy="11" r="0.9" fill="hsl(332 60% 86% / 0.5)"/><circle cx="92" cy="92" r="1.3" fill="hsl(332 60% 86% / 0.5)"/><circle cx="26" cy="22" r="0.8" fill="hsl(332 60% 86% / 0.5)"/><circle cx="592" cy="155" r="0.5" fill="hsl(332 60% 86% / 0.5)"/><circle cx="486" cy="30" r="0.3" fill="hsl(332 60% 86% / 0.5)"/><circle cx="496" cy="87" r="0.7" fill="hsl(332 60% 86% / 0.5)"/>
<rect width="640" height="360" fill="none"/>
</svg>
