<svg xmlns="http://www.w3.org/2000/svg" viewBox="0 0 640 360" width="640" height="360" role="img">
<defs>
<linearGradient id="sky" x1="0" y1="0" x2="0" y2="1">
<stop offset="0" stop-color="hsl(186 58% 41%)"/>
<stop offset="0.58" stop-color="hsl(174 50% 20%)"/>
<stop offset="1" stop-color="hsl(168 42% 10%)"/>
</linearGradient>

</defs>
<rect width="640" height="360" fill="url(#sky)"/>
<circle cx="332.8" cy="187.20000000000002" r="130" fill="hsl(186 70% 60% / 0.1)"/><path d="M348 194 L454 226 L426 237 Z"
      fill="hsl(168.4101741053164 64% 34.52455235272646% / 0.5)"
      stroke="hsl(206 80% 68% / 0.55)" stroke-width="1"/><path d="M347 179 L450 87 L478 138 Z"
      fill="hsl(200.2432925477624 64% 42.147352339699864% / 0.5)"
      stroke="hsl(206 80% 68% / 0.55)" stroke-width="1"/><path d="M315 186 L117 211 L148 149 Z"
      fill="hsl(166.76273596845567 64% 30.77891946863383% / 0.5)"
      stroke="hsl(206 80% 68% / 0.55)" stroke-width="1"/><path d="M316 192 L256 223 L254 199 Z"
      fill="hsl(171.10753548704088 64% 45.51736057084054% / 0.5)"
      stroke="hsl(206 80% 68% / 0.55)" stroke-width="1"/><path d="M340 199 L446 343 L407 333 Z"
      fill="hsl(194.62145906314254 64% 41.194204702973366% / 0.5)"
      stroke="hsl(206 80% 68% / 0.55)" stroke-width="1"/><path d="M346 178 L487 48 L504 91 Z"
      fill="hsl(168.44045229628682 64% 45.549869750626385% / 0.5)"
      stroke="hsl(206 80% 68% / 0.55)" stroke-width="1"/><path d="M317 194 L157 272 L163 244 Z"
      fill="hsl(174.22649757377803 64% 37.61947435699403% / 0.5)"
      stroke="hsl(206 80% 68% / 0.55)" stroke-width="1"/><path d="M315 187 L130 207 L153 175 Z"
      fill="hsl(182.81058825924993 64% 30.944554048590362% / 0.5)"
      stroke="hsl(206 80% 68% / 0.55)" stroke-width="1"/><path d="M317 194 L196 273 L181 224 Z"
      fill="hsl(169.29718813300133 64% 44.65742817334831% / 0.5)"
      stroke="hsl(206 80% 68% / 0.55)" stroke-width="1"/><path d="M347 195 L521 249 L456 284 Z"
      fill="hsl(205.6077622193843 64% 46.5800355495885% / 0.5)"
      stroke="hsl(206 80% 68% / 0.55)" stroke-width="1"/><path d="M331 174 L287 73 L337 82 Z"
      fill="hsl(166.92476684600115 64% 38.936227690428495% / 0.5)"
      stroke="hsl(206 80% 68% / 0.55)" stroke-width="1"/><path d="M320 178 L182 109 L236 93 Z"
      fill="hsl(196.13087891973555 64% 48.995487299747765% / 0.5)"
      stroke="hsl(206 80% 68% / 0.55)" stroke-width="1"/><path d="M331 174 L280 45 L350 59 Z"
      fill="hsl(202.8721102643758 64% 56.59944197628647% / 0.5)"
      stroke="hsl(206 80% 68% / 0.55)" stroke-width="1"/><path d="M335 200 L378 303 L330 293 Z"
      fill="hsl(197.79309006780386 64% 48.833257989026606% / 0.5)"
      stroke="hsl(206 80% 68% / 0.55)" stroke-width="1"/><path d="M316 192 L224 236 L224 210 Z"
      fill="hsl(180.23164625652134 64% 32.81990316696465% / 0.5)"
      stroke="hsl(206 80% 68% / 0.55)" stroke-width="1"/><path d="M318 180 L272 168 L291 158 Z"
      fill="hsl(189.91027464531362 64% 31.19500156119466% / 0.5)"
      stroke="hsl(206 80% 68% / 0.55)" stroke-width="1"/><path d="M335 200 L398 342 L325 330 Z"
      fill="hsl(173.83993291668594 64% 33.63085208274424% / 0.5)"
      stroke="hsl(206 80% 68% / 0.55)" stroke-width="1"/><path d="M321 197 L244 297 L212 257 Z"
      fill="hsl(168.32553083449602 64% 31.664943397045135% / 0.5)"
      stroke="hsl(206 80% 68% / 0.55)" stroke-width="1"/><path d="M323 198 L271 286 L241 256 Z"
      fill="hsl(183.39038023166358 64% 46.02623300347477% / 0.5)"
      stroke="hsl(206 80% 68% / 0.55)" stroke-width="1"/><path d="M333 200 L349 286 L324 275 Z"
      fill="hsl(190.85396281816065 64% 44.46192583441734% / 0.5)"
      stroke="hsl(206 80% 68% / 0.55)" stroke-width="1"/><path d="M315 184 L136 186 L175 135 Z"
      fill="hsl(202.3128204923123 64% 45.14088651072234% / 0.5)"
      stroke="hsl(206 80% 68% / 0.55)" stroke-width="1"/><path d="M331 200 L333 233 L322 226 Z"
      fill="hsl(176.7948222476989 64% 52.995409899391234% / 0.5)"
      stroke="hsl(206 80% 68% / 0.55)" stroke-width="1"/><path d="M334 174 L328 88 L347 101 Z"
      fill="hsl(197.7508073989302 64% 34.64781643636525% / 0.5)"
      stroke="hsl(206 80% 68% / 0.55)" stroke-width="1"/><path d="M319 179 L216 136 L250 125 Z"
      fill="hsl(173.090405812487 64% 35.57359419390559% / 0.5)"
      stroke="hsl(206 80% 68% / 0.55)" stroke-width="1"/><path d="M324 199 L267 313 L236 283 Z"
      fill="hsl(192.17238867096603 64% 31.82682630047202% / 0.5)"
      stroke="hsl(206 80% 68% / 0.55)" stroke-width="1"/><path d="M335 200 L365 287 L342 277 Z"
      fill="hsl(166.11720896698534 64% 36.76975410338491% / 0.5)"
      stroke="hsl(206 80% 68% / 0.55)" stroke-width="1"/><circle cx="332.8" cy="187.20000000000002" r="15" fill="hsl(216 90% 76%)"/>
<rect width="640" height="360" fill="none"/>
</svg>
